<svg xmlns="http://www.w3.org/2000/svg" width="30" height="30" viewBox="0 0 30 30"><rect width="30" height="30" fill="#2db7ef" opacity="0"/><path d="M24.1,8.333H20.2v-2A3.292,3.292,0,0,0,16.95,3h-3.9A3.292,3.292,0,0,0,9.8,6.333v2H5.9a3.951,3.951,0,0,0-3.9,4V23a3.951,3.951,0,0,0,3.9,4H24.1A3.951,3.951,0,0,0,28,23V12.333A3.951,3.951,0,0,0,24.1,8.333Zm-11.7-2a.658.658,0,0,1,.65-.667h3.9a.658.658,0,0,1,.65.667v2H12.4ZM25.4,23a1.317,1.317,0,0,1-1.3,1.333H5.9A1.317,1.317,0,0,1,4.6,23V12.333A1.317,1.317,0,0,1,5.9,11H24.1a1.317,1.317,0,0,1,1.3,1.333Z" transform="translate(0)" fill="#2db7ef"/><path d="M12,10.5A3.5,3.5,0,1,0,15.5,14,3.5,3.5,0,0,0,12,10.5Zm0,5A1.5,1.5,0,1,1,13.5,14,1.5,1.5,0,0,1,12,15.5Z" transform="translate(3 3.706)" fill="#2db7ef"/></svg>