<svg xmlns="http://www.w3.org/2000/svg" width="32" height="32" viewBox="0 0 32 32"><defs><style>.a,.b{fill:#f56962;}.a{opacity:0;}</style></defs><rect class="a" width="32" height="32"/><path class="b" d="M24.667,3H7.333A4.333,4.333,0,0,0,3,7.333V24.667A4.333,4.333,0,0,0,7.333,29H24.667A4.333,4.333,0,0,0,29,24.667V7.333A4.333,4.333,0,0,0,24.667,3Zm1.444,21.667a1.444,1.444,0,0,1-1.444,1.444H7.333a1.444,1.444,0,0,1-1.444-1.444V7.333A1.444,1.444,0,0,1,7.333,5.889H24.667a1.444,1.444,0,0,1,1.444,1.444Z" transform="translate(0 0)"/><path class="b" d="M14.71,9.29a1,1,0,0,0-1.42,0L12,10.59l-1.29-1.3a1,1,0,0,0-1.42,1.42L10.59,12l-1.3,1.29a1,1,0,1,0,1.42,1.42L12,13.41l1.29,1.3a1,1,0,1,0,1.42-1.42L13.41,12l1.3-1.29a1,1,0,0,0,0-1.42Z" transform="translate(4 4)"/></svg>