<svg xmlns="http://www.w3.org/2000/svg" width="30" height="30" viewBox="0 0 30 30"><path d="M30,30H0V0" fill="#5444a5" opacity="0"/><path d="M23.533,3H6.467A3.6,3.6,0,0,0,3,6.707V8.333a1.333,1.333,0,1,0,2.667,0V6.707a.96.96,0,0,1,.8-1.04H23.533a.96.96,0,0,1,.8,1.04V23.293a.96.96,0,0,1-.8,1.04H21.666a1.333,1.333,0,0,0,0,2.667h1.867A3.6,3.6,0,0,0,27,23.293V6.707A3.6,3.6,0,0,0,23.533,3Z" transform="translate(0)" fill="#5444a5"/><path d="M3.86,14a1.01,1.01,0,1,0,.28,2,2.49,2.49,0,0,1,2.12.72,2.52,2.52,0,0,1,.51,2.84,1,1,0,0,0,.48,1.33,1.06,1.06,0,0,0,.42.09,1,1,0,0,0,.91-.58A4.52,4.52,0,0,0,3.86,14Z" transform="translate(0 6)" fill="#5444a5"/><path d="M3.86,10.08a1.01,1.01,0,0,0,.28,2,6.035,6.035,0,0,1,6.62,7.66A1,1,0,0,0,11.44,21a.9.9,0,0,0,.28,0,1,1,0,0,0,1-.72A8,8,0,0,0,3.9,10.08Z" transform="translate(0 6)" fill="#5444a5"/><circle cx="1" cy="1" r="1" transform="translate(3 22.909)" fill="#5444a5"/></svg>