<svg xmlns="http://www.w3.org/2000/svg" width="30" height="30" viewBox="0 0 30 30"><defs><style>.a,.b{fill:#43c8b1;}.a{opacity:0;}</style></defs><rect class="a" width="30" height="30" transform="translate(30 30) rotate(180)"/><path class="b" d="M23,3H7A4,4,0,0,0,3,7V23a4,4,0,0,0,4,4H23a4,4,0,0,0,4-4V7A4,4,0,0,0,23,3Zm1.333,20A1.333,1.333,0,0,1,23,24.333H7A1.333,1.333,0,0,1,5.667,23V7A1.333,1.333,0,0,1,7,5.667H23A1.333,1.333,0,0,1,24.333,7Z"/><path class="b" d="M14.7,8.39l-3.78,5L9.29,11.28a1,1,0,1,0-1.58,1.23l2.43,3.11a1,1,0,0,0,1.58-.01l4.57-6a1.006,1.006,0,0,0-1.6-1.22Z" transform="translate(2.999 2.999)"/></svg>