<svg xmlns="http://www.w3.org/2000/svg" xmlns:xlink="http://www.w3.org/1999/xlink" width="109" height="251" viewBox="0 0 109 251">
  <defs>
    <clipPath id="clip-path">
      <rect width="109" height="251" fill="none"/>
    </clipPath>
  </defs>
  <g id="Pattern" opacity="0.5">
    <g id="Repeat_Grid_1" data-name="Repeat Grid 1" clip-path="url(#clip-path)">
      <g transform="translate(-1801 -93)">
        <circle id="Ellipse_1" data-name="Ellipse 1" cx="4" cy="4" r="4" transform="translate(1801 93)" fill="rgba(172,172,172,1)"/>
      </g>
      <g transform="translate(-1753 -93)">
        <circle id="Ellipse_1-2" data-name="Ellipse 1" cx="4" cy="4" r="4" transform="translate(1801 93)" fill="rgba(172,172,172,1)"/>
      </g>
      <g transform="translate(-1705 -93)">
        <circle id="Ellipse_1-3" data-name="Ellipse 1" cx="4" cy="4" r="4" transform="translate(1801 93)" fill="rgba(172,172,172,1)"/>
      </g>
      <g transform="translate(-1801 -45)">
        <circle id="Ellipse_1-4" data-name="Ellipse 1" cx="4" cy="4" r="4" transform="translate(1801 93)" fill="rgba(172,172,172,1)"/>
      </g>
      <g transform="translate(-1753 -45)">
        <circle id="Ellipse_1-5" data-name="Ellipse 1" cx="4" cy="4" r="4" transform="translate(1801 93)" fill="rgba(172,172,172,1)"/>
      </g>
      <g transform="translate(-1705 -45)">
        <circle id="Ellipse_1-6" data-name="Ellipse 1" cx="4" cy="4" r="4" transform="translate(1801 93)" fill="rgba(172,172,172,1)"/>
      </g>
      <g transform="translate(-1801 3)">
        <circle id="Ellipse_1-7" data-name="Ellipse 1" cx="4" cy="4" r="4" transform="translate(1801 93)" fill="rgba(172,172,172,1)"/>
      </g>
      <g transform="translate(-1753 3)">
        <circle id="Ellipse_1-8" data-name="Ellipse 1" cx="4" cy="4" r="4" transform="translate(1801 93)" fill="rgba(172,172,172,1)"/>
      </g>
      <g transform="translate(-1705 3)">
        <circle id="Ellipse_1-9" data-name="Ellipse 1" cx="4" cy="4" r="4" transform="translate(1801 93)" fill="rgba(172,172,172,1)"/>
      </g>
      <g transform="translate(-1801 51)">
        <circle id="Ellipse_1-10" data-name="Ellipse 1" cx="4" cy="4" r="4" transform="translate(1801 93)" fill="rgba(172,172,172,1)"/>
      </g>
      <g transform="translate(-1753 51)">
        <circle id="Ellipse_1-11" data-name="Ellipse 1" cx="4" cy="4" r="4" transform="translate(1801 93)" fill="rgba(172,172,172,1)"/>
      </g>
      <g transform="translate(-1705 51)">
        <circle id="Ellipse_1-12" data-name="Ellipse 1" cx="4" cy="4" r="4" transform="translate(1801 93)" fill="rgba(172,172,172,1)"/>
      </g>
      <g transform="translate(-1801 99)">
        <circle id="Ellipse_1-13" data-name="Ellipse 1" cx="4" cy="4" r="4" transform="translate(1801 93)" fill="rgba(172,172,172,1)"/>
      </g>
      <g transform="translate(-1753 99)">
        <circle id="Ellipse_1-14" data-name="Ellipse 1" cx="4" cy="4" r="4" transform="translate(1801 93)" fill="rgba(172,172,172,1)"/>
      </g>
      <g transform="translate(-1705 99)">
        <circle id="Ellipse_1-15" data-name="Ellipse 1" cx="4" cy="4" r="4" transform="translate(1801 93)" fill="rgba(172,172,172,1)"/>
      </g>
      <g transform="translate(-1801 147)">
        <circle id="Ellipse_1-16" data-name="Ellipse 1" cx="4" cy="4" r="4" transform="translate(1801 93)" fill="rgba(172,172,172,1)"/>
      </g>
      <g transform="translate(-1753 147)">
        <circle id="Ellipse_1-17" data-name="Ellipse 1" cx="4" cy="4" r="4" transform="translate(1801 93)" fill="rgba(172,172,172,1)"/>
      </g>
      <g transform="translate(-1705 147)">
        <circle id="Ellipse_1-18" data-name="Ellipse 1" cx="4" cy="4" r="4" transform="translate(1801 93)" fill="rgba(172,172,172,1)"/>
      </g>
    </g>
  </g>
</svg>
