<svg xmlns="http://www.w3.org/2000/svg" width="30" height="30" viewBox="0 0 30 30"><rect width="30" height="30" fill="#ef8543" opacity="0"/><path d="M24.1,3H5.9A3.951,3.951,0,0,0,2,7V17.667a3.951,3.951,0,0,0,3.9,4h7.8v2.667H8.5A1.334,1.334,0,0,0,8.5,27h13a1.334,1.334,0,0,0,0-2.667H16.3V21.667h7.8a3.951,3.951,0,0,0,3.9-4V7A3.951,3.951,0,0,0,24.1,3Zm1.3,14.667A1.317,1.317,0,0,1,24.1,19H5.9a1.317,1.317,0,0,1-1.3-1.333V7A1.317,1.317,0,0,1,5.9,5.667H24.1A1.317,1.317,0,0,1,25.4,7Z" transform="translate(0)" fill="#ef8543"/></svg>