<svg xmlns="http://www.w3.org/2000/svg" width="30" height="30" viewBox="0 0 30 30"><rect width="30" height="30" fill="#5444a5" opacity="0"/><path d="M25.667,16.573H20.253L23.32,13.28a1.333,1.333,0,0,0,0-1.88L17.733,6.253a1.24,1.24,0,0,0-.947-.347,1.333,1.333,0,0,0-.933.413L13.427,8.987V4.333A1.333,1.333,0,0,0,12.093,3H4.333A1.333,1.333,0,0,0,3,4.333V21.787A5.213,5.213,0,0,0,8.213,27H25.667A1.333,1.333,0,0,0,27,25.667v-7.76A1.333,1.333,0,0,0,25.667,16.573ZM16.893,9.12l3.56,3.32-7.027,7.547V12.84ZM10.76,12.333v4H5.667v-4Zm0-6.667v4H5.667v-4ZM5.667,21.787V19H10.76v2.787a2.547,2.547,0,1,1-5.093,0Zm18.667,2.547H13.013L17.76,19.24h6.573Z" fill="#5444a5"/></svg>