<svg xmlns="http://www.w3.org/2000/svg" width="30" height="30" viewBox="0 0 30 30"><rect width="30" height="30" fill="#18afed" opacity="0"/><path d="M5.5,18a1,1,0,0,1-.64-.24A8.81,8.81,0,0,1,1.5,11,8.81,8.81,0,0,1,4.86,4.24,1,1,0,1,1,6.14,5.76,6.9,6.9,0,0,0,3.5,11a6.9,6.9,0,0,0,2.64,5.24A.995.995,0,0,1,5.5,18Z" transform="translate(0 2.374)" fill="#18afed"/><path d="M12,7a4.09,4.09,0,0,1,1,.14V3a1,1,0,1,0-2,0V7.14A4.09,4.09,0,0,1,12,7Z" transform="translate(3)" fill="#18afed"/><path d="M12,15a4.09,4.09,0,0,1-1-.14V20a1,1,0,0,0,2,0V14.86A4.09,4.09,0,0,1,12,15Z" transform="translate(3 6)" fill="#18afed"/><path d="M16,16a.995.995,0,0,1-.64-1.76A4.28,4.28,0,0,0,17,11a4.28,4.28,0,0,0-1.64-3.24,1,1,0,1,1,1.28-1.52A6.2,6.2,0,0,1,19,11a6.2,6.2,0,0,1-2.36,4.76A1,1,0,0,1,16,16Z" transform="translate(4.493 2.553)" fill="#18afed"/><path d="M8,16a1,1,0,0,1-.64-.24A6.2,6.2,0,0,1,5,11,6.2,6.2,0,0,1,7.36,6.24,1,1,0,1,1,8.64,7.76,4.28,4.28,0,0,0,7,11a4.28,4.28,0,0,0,1.64,3.24A.995.995,0,0,1,8,16Z" transform="translate(1.507 2.553)" fill="#18afed"/><path d="M18.5,18a.995.995,0,0,1-.64-1.76A6.9,6.9,0,0,0,20.5,11a6.9,6.9,0,0,0-2.64-5.24,1,1,0,1,1,1.28-1.52A8.81,8.81,0,0,1,22.5,11a8.81,8.81,0,0,1-3.36,6.76A1,1,0,0,1,18.5,18Z" transform="translate(6 2.374)" fill="#18afed"/><path d="M12,12a1,1,0,1,1,1-1A1,1,0,0,1,12,12ZM12,11ZM12,11ZM12,11ZM12,11ZM12,11ZM12,11ZM12,11Z" transform="translate(3 2.727)" fill="#18afed"/></svg>