<svg xmlns="http://www.w3.org/2000/svg" width="30" height="30" viewBox="0 0 30 30"><rect width="30" height="30" fill="#5fd46d" opacity="0"/><path d="M18.28,8.37a1,1,0,1,0-1.56,1.26,4,4,0,0,1,0,4.74,1,1,0,0,0,1.56,1.26,6,6,0,0,0,0-7.26Z" transform="translate(4.715 2.999)" fill="#5fd46d"/><path d="M19.64,5.329a.814.814,0,0,0-1.41.186,1.879,1.879,0,0,0,.13,2.014A11.526,11.526,0,0,1,21,15a11.526,11.526,0,0,1-2.64,7.471A1.682,1.682,0,0,0,18,23.44a1.869,1.869,0,0,0,.228,1.046A.92.92,0,0,0,19,25a.842.842,0,0,0,.64-.329A14.9,14.9,0,0,0,23,15a14.9,14.9,0,0,0-3.36-9.671Z" transform="translate(6)" fill="#5fd46d"/><path d="M15,3.165a.789.789,0,0,0-1,0L7.52,9.1h-5c-.552,0-1,.6-1,1.333v9.145c0,.736.448,1.333,1,1.333h5l6.41,5.866A.881.881,0,0,0,14.5,27c.552,0,1-.6,1-1.333V4.338A1.466,1.466,0,0,0,15,3.165Zm-1.47,20L8.4,18.468a.833.833,0,0,0-.57-.227H3.5V11.763H7.83a.833.833,0,0,0,.57-.227l5.1-4.666Z" fill="#5fd46d"/></svg>